<?xml version="1.0" encoding="UTF-8" standalone="no"?>
<svg
   width="502"
   height="502"
   viewBox="0 0 502 502"
   fill="none"
   version="1.1"
   id="svg3"
   sodipodi:docname="favicon.svg"
   xml:space="preserve"
   inkscape:version="1.4.3 (0d15f75042, 2025-12-25)"
   xmlns:inkscape="http://www.inkscape.org/namespaces/inkscape"
   xmlns:sodipodi="http://sodipodi.sourceforge.net/DTD/sodipodi-0.dtd"
   xmlns:xlink="http://www.w3.org/1999/xlink"
   xmlns="http://www.w3.org/2000/svg"
   xmlns:svg="http://www.w3.org/2000/svg"><defs
     id="defs3"><linearGradient
       id="linearGradient11"
       inkscape:collect="always"><stop
         style="stop-color:#aaeeff;stop-opacity:1"
         offset="0"
         id="stop11" /><stop
         style="stop-color:#00ccff;stop-opacity:1"
         offset="1"
         id="stop12" /></linearGradient><linearGradient
       inkscape:collect="always"
       xlink:href="#linearGradient11"
       id="linearGradient12"
       x1="-345.5206"
       y1="-63.16943"
       x2="-264.80508"
       y2="13.428793"
       gradientUnits="userSpaceOnUse" /><linearGradient
       inkscape:collect="always"
       xlink:href="#linearGradient11"
       id="linearGradient3"
       gradientUnits="userSpaceOnUse"
       x1="-345.5206"
       y1="-63.16943"
       x2="-264.80508"
       y2="13.428793" /><linearGradient
       inkscape:collect="always"
       xlink:href="#linearGradient11"
       id="linearGradient4"
       gradientUnits="userSpaceOnUse"
       x1="-345.5206"
       y1="-63.16943"
       x2="-264.80508"
       y2="13.428793" /><linearGradient
       inkscape:collect="always"
       xlink:href="#linearGradient11"
       id="linearGradient5"
       gradientUnits="userSpaceOnUse"
       x1="-345.5206"
       y1="-63.16943"
       x2="-264.80508"
       y2="13.428793" /></defs><sodipodi:namedview
     id="namedview3"
     pagecolor="#ffffff"
     bordercolor="#000000"
     borderopacity="0.25"
     inkscape:showpageshadow="2"
     inkscape:pageopacity="0.0"
     inkscape:pagecheckerboard="0"
     inkscape:deskcolor="#d1d1d1"
     inkscape:zoom="1.315613"
     inkscape:cx="172.92319"
     inkscape:cy="276.6771"
     inkscape:window-width="2048"
     inkscape:window-height="1204"
     inkscape:window-x="0"
     inkscape:window-y="0"
     inkscape:window-maximized="1"
     inkscape:current-layer="svg3" /><g
     id="g18"
     transform="matrix(31.192723,0,0,27.335567,-73.708619,-1111.4757)"
     style="fill:none"><g
       id="g11"
       style="fill:url(#linearGradient12);fill-opacity:1"
       transform="matrix(0.16432359,0,0,0.20669323,59.149778,53.728297)"><path
         style="fill:url(#linearGradient3);fill-opacity:1;stroke-width:0.515755"
         d="m -275.66093,-63.169431 v 27.979738 c 6.37629,2.319453 18.95954,7.519607 27.94549,11.472538 -0.0754,-11.411194 -0.4155,-21.674696 -1.02042,-22.722455 -0.76167,-1.319232 -14.38503,-9.579753 -26.92507,-16.729821 z"
         id="path7-5" /><path
         id="path8-3"
         style="fill:url(#linearGradient4);fill-opacity:1;stroke-width:0.515755"
         d="m -317.559,-63.169431 c -12.54013,7.150114 -26.16339,15.410575 -26.92507,16.729821 -0.69147,1.197684 -1.03701,14.436677 -1.03653,27.667463 h 0.008 c 0.48665,0.925045 22.65513,11.0957169 29.14824,13.485184 h 39.7514 c 6.85988,-2.5725654 28.91337,-12.704959 28.91353,-13.421723 0,-0.734765 -23.17692,-11.365423 -29.40209,-13.602044 H -317.559 Z m -27.94449,49.378554 c 0.0765,11.3749005 0.41611,21.5868206 1.01942,22.6317872 0.76166,1.3192368 14.38513,9.5798438 26.92507,16.7298288 V -2.3183362 c -6.37591,-2.3192921 -18.95839,-7.5195691 -27.94449,-11.4725408 z" /><path
         style="fill:url(#linearGradient5);fill-opacity:1;stroke-width:0.515755"
         d="m -247.71643,-13.700214 c -8.98589,3.9528728 -21.5685,9.1521768 -27.9445,11.4715268 V 25.570739 c 12.53993,-7.150114 26.1634,-15.410573 26.92507,-16.7298288 0.60172,-1.0421988 0.94167,-11.2025994 1.01943,-22.5411242 z"
         id="path6-5" /></g></g></svg>
