<?xml version="1.0" encoding="UTF-8" standalone="no"?>
<svg
   width="180"
   height="23"
   viewBox="0 0 180 23"
   fill="none"
   version="1.1"
   id="svg11"
   sodipodi:docname="light.svg"
   xml:space="preserve"
   inkscape:version="1.4.3 (0d15f75042, 2025-12-25)"
   xmlns:inkscape="http://www.inkscape.org/namespaces/inkscape"
   xmlns:sodipodi="http://sodipodi.sourceforge.net/DTD/sodipodi-0.dtd"
   xmlns:xlink="http://www.w3.org/1999/xlink"
   xmlns="http://www.w3.org/2000/svg"
   xmlns:svg="http://www.w3.org/2000/svg"><defs
     id="defs11"><linearGradient
       id="linearGradient11"
       inkscape:collect="always"><stop
         style="stop-color:#aaeeff;stop-opacity:1"
         offset="0"
         id="stop11" /><stop
         style="stop-color:#00ccff;stop-opacity:1"
         offset="1"
         id="stop12" /></linearGradient><linearGradient
       inkscape:collect="always"
       xlink:href="#linearGradient11"
       id="linearGradient12"
       x1="-345.5206"
       y1="-63.16943"
       x2="-264.80508"
       y2="13.428793"
       gradientUnits="userSpaceOnUse" /><linearGradient
       inkscape:collect="always"
       xlink:href="#linearGradient11"
       id="linearGradient15"
       gradientUnits="userSpaceOnUse"
       x1="-345.5206"
       y1="-63.16943"
       x2="-264.80508"
       y2="13.428793" /><linearGradient
       inkscape:collect="always"
       xlink:href="#linearGradient11"
       id="linearGradient16"
       gradientUnits="userSpaceOnUse"
       x1="-345.5206"
       y1="-63.16943"
       x2="-264.80508"
       y2="13.428793" /><linearGradient
       inkscape:collect="always"
       xlink:href="#linearGradient11"
       id="linearGradient17"
       gradientUnits="userSpaceOnUse"
       x1="-345.5206"
       y1="-63.16943"
       x2="-264.80508"
       y2="13.428793" /></defs><sodipodi:namedview
     id="namedview11"
     pagecolor="#ffffff"
     bordercolor="#000000"
     borderopacity="0.25"
     inkscape:showpageshadow="2"
     inkscape:pageopacity="0.0"
     inkscape:pagecheckerboard="0"
     inkscape:deskcolor="#d1d1d1"
     inkscape:zoom="5.3805556"
     inkscape:cx="65.049045"
     inkscape:cy="33.453795"
     inkscape:window-width="2048"
     inkscape:window-height="1204"
     inkscape:window-x="0"
     inkscape:window-y="0"
     inkscape:window-maximized="1"
     inkscape:current-layer="svg11" /><path
     id="path38"
     style="font-weight:bold;font-size:18.6667px;font-family:Orbitron;-inkscape-font-specification:'Orbitron Bold';fill:#000000"
     d="M 109.60001,2.7050781 V 17.078125 h 8.41797 c 0.34844,0 0.67912,-0.06819 0.99023,-0.205078 0.32356,-0.136889 0.59631,-0.317015 0.82031,-0.541016 0.23645,-0.236444 0.42366,-0.511154 0.56055,-0.822265 0.13689,-0.311112 0.20508,-0.646924 0.20508,-1.007813 V 8.828125 c 0,-0.3484451 -0.0682,-0.6791227 -0.20508,-0.9902344 -0.13689,-0.3235561 -0.3241,-0.5963121 -0.56055,-0.8203125 -0.224,-0.2364448 -0.49675,-0.4236577 -0.82031,-0.5605469 -0.31111,-0.1368891 -0.64179,-0.2050781 -0.99023,-0.2050781 h -5.97266 v -3.546875 z m 2.57617,5.9921875 h 5.8418 c 0.0871,0 0.13086,0.043748 0.13086,0.1308594 v 5.673828 c 0,0.08711 -0.0438,0.130859 -0.13086,0.130859 h -5.8418 c -0.0871,0 -0.13086,-0.04375 -0.13086,-0.130859 V 8.828125 c 0,-0.087111 0.0438,-0.1308594 0.13086,-0.1308594 z" /><path
     id="path36"
     style="font-weight:bold;font-size:18.6667px;font-family:Orbitron;-inkscape-font-specification:'Orbitron Bold';fill:#000000"
     d="m 105.13907,2.7050781 v 3.546875 h -5.992186 c -0.36089,0 -0.696701,0.068189 -1.007813,0.2050781 C 97.827959,6.5939204 97.55325,6.7811333 97.316806,7.0175781 97.092805,7.2415785 96.912679,7.5143345 96.77579,7.8378906 96.638901,8.1490023 96.570712,8.4796799 96.570712,8.828125 v 5.673828 c 0,0.360889 0.06819,0.696701 0.205078,1.007813 0.136889,0.311111 0.317015,0.585821 0.541016,0.822265 0.236444,0.224001 0.511153,0.404127 0.822265,0.541016 0.311112,0.136889 0.646923,0.205078 1.007813,0.205078 h 8.437496 V 2.7050781 Z m -6.005858,5.9921875 c 0.0044,-3.403e-4 0.009,0 0.01367,0 h 5.861326 c 0.0871,0 0.13086,0.043748 0.13086,0.1308594 v 5.673828 c 0,0.08711 -0.0438,0.13086 -0.13086,0.130859 h -5.861326 c -0.07467,0 -0.113281,-0.04375 -0.113281,-0.130859 V 8.828125 c 0,-0.081667 0.03398,-0.1257552 0.09961,-0.1308594 z" /><path
     id="path34"
     style="font-weight:bold;font-size:18.6667px;font-family:Orbitron;-inkscape-font-specification:'Orbitron Bold';fill:#000000"
     d="m 84.15665,6.2519531 v 2.4453125 h 8.419921 c 0.08711,0 0.13086,0.043748 0.13086,0.1308594 v 1.605469 H 84.15665 v 4.068359 c 0,0.360889 0.06819,0.696701 0.205078,1.007813 0.136889,0.311111 0.318968,0.585821 0.542968,0.822265 0.236445,0.224001 0.509202,0.404127 0.820313,0.541016 0.311112,0.136889 0.646923,0.205078 1.007812,0.205078 h 8.419922 v -8.25 c 0,-0.3484451 -0.07014,-0.6791227 -0.207031,-0.9902344 C 94.808823,7.5143345 94.623564,7.2415785 94.387118,7.0175781 94.163118,6.7811333 93.888409,6.5939204 93.564853,6.4570312 93.253741,6.3201421 92.925017,6.2519531 92.576571,6.2519531 Z m 2.445312,6.6445309 h 6.105469 v 1.736328 h -5.97461 c -0.08711,0 -0.130859,-0.04375 -0.130859,-0.130859 z" /><path
     style="font-weight:bold;font-size:18.6667px;font-family:Orbitron;-inkscape-font-specification:'Orbitron Bold';fill:#000000"
     d="M 80.199839,2.7046551 V 14.50201 q 0,0.130667 0.112,0.130667 h 2.184004 v 2.445337 h -2.184004 q -0.541334,0 -1.008002,-0.205333 Q 78.83717,16.667347 78.482503,16.331346 78.146502,15.976679 77.941168,15.510012 77.735835,15.043344 77.735835,14.50201 V 2.7046551 Z"
     id="path32" /><path
     style="font-weight:bold;font-size:18.6667px;font-family:Orbitron;-inkscape-font-specification:'Orbitron Bold';fill:#000000"
     d="M 75.887841,6.2513282 V 6.8673293 L 71.8745,11.571338 q 0.989336,1.232002 1.997337,2.464004 1.026669,1.213336 2.016004,2.426671 v 0.616001 h -2.669338 l -2.930672,-3.584006 -2.912005,3.584006 H 64.706487 V 16.462013 L 68.701161,11.571338 64.706487,6.8673293 V 6.2513282 h 2.669339 L 70.287831,9.686001 Q 70.997165,8.8459995 71.7625,7.9686646 72.527835,7.0913297 73.218503,6.2513282 Z"
     id="path31" /><path
     style="font-weight:bold;font-size:18.6667px;font-family:Orbitron;-inkscape-font-specification:'Orbitron Bold';fill:#000000"
     d="m 62.970496,6.2513282 v 0.6160011 l -4.013341,4.7040087 q 0.989335,1.232002 1.997337,2.464004 1.026669,1.213336 2.016004,2.426671 v 0.616001 h -2.669338 l -2.930672,-3.584006 -2.912005,3.584006 H 51.789142 V 16.462013 L 55.783816,11.571338 51.789142,6.8673293 V 6.2513282 h 2.669339 L 57.370486,9.686001 Q 58.07982,8.8459995 58.845155,7.9686646 59.61049,7.0913297 60.301158,6.2513282 Z"
     id="path30" /><path
     id="path29"
     style="font-weight:bold;font-size:18.6667px;font-family:Orbitron;-inkscape-font-specification:'Orbitron Bold';fill:#000000"
     d="m 41.894931,6.2519531 c -0.36089,0 -0.696701,0.068189 -1.007813,0.2050781 -0.311111,0.1368892 -0.583867,0.3241021 -0.820312,0.5605469 -0.224,0.2240004 -0.404127,0.4967564 -0.541016,0.8203125 -0.136889,0.3111117 -0.205078,0.6417893 -0.205078,0.9902344 v 5.673828 c 0,0.360889 0.06819,0.696701 0.205078,1.007813 0.136889,0.311111 0.317016,0.585821 0.541016,0.822265 0.236445,0.224001 0.509201,0.404127 0.820312,0.541016 0.311112,0.136889 0.646923,0.205078 1.007813,0.205078 h 8.419922 v -2.445313 h -8.419922 c -0.08711,0 -0.128907,-0.04375 -0.128907,-0.130859 v -1.605469 h 8.548829 V 8.828125 c 0,-0.3484451 -0.06819,-0.6791227 -0.205079,-0.9902344 C 49.972886,7.5143345 49.785673,7.2415785 49.549228,7.0175781 49.325228,6.7811333 49.050519,6.5939204 48.726962,6.4570312 48.415851,6.3201421 48.087126,6.2519531 47.738681,6.2519531 Z m 0,2.4453125 h 5.84375 c 0.08711,0 0.130859,0.043748 0.130859,0.1308594 v 1.605469 H 41.766024 V 8.828125 c 0,-0.087111 0.0418,-0.1308594 0.128907,-0.1308594 z" /><path
     style="font-weight:bold;font-size:18.6667px;font-family:Orbitron;-inkscape-font-specification:'Orbitron Bold';fill:#000000"
     d="m 35.32512,6.2513282 q 0.522668,0 0.989335,0.2053337 0.466668,0.2053337 0.821335,0.560001 0.354667,0.3360006 0.560001,0.8213348 0.205334,0.4666675 0.205334,0.9893351 V 17.078014 H 35.455787 V 8.8273328 q 0,-0.1306669 -0.130667,-0.1306669 h -5.842677 q -0.130667,0 -0.130667,0.1306669 V 17.078014 H 26.906438 V 2.7046551 h 2.445338 v 3.5466731 z"
     id="text18" /><!-- mintlify wordmark paths --><!-- M icon --><!-- Starter Kit label --><text
     x="126.93082"
     y="15.256321"
     font-family="Inter, ui-sans-serif, system-ui, '-apple-system', sans-serif"
     font-size="15px"
     font-weight="500"
     fill="#a1a1aa"
     letter-spacing="-0.01em"
     id="text11">Docs</text><g
     id="g18"
     transform="matrix(1.2069628,0,0,1.0577273,-2.8620442,-42.828547)"><g
       id="g11"
       style="fill:url(#linearGradient12);fill-opacity:1"
       transform="matrix(0.16432359,0,0,0.20669323,59.149778,53.728297)"><path
         style="fill:url(#linearGradient15);fill-opacity:1;stroke-width:0.515755"
         d="m -275.66093,-63.169431 v 27.979738 c 6.37629,2.319453 18.95954,7.519607 27.94549,11.472538 -0.0754,-11.411194 -0.4155,-21.674696 -1.02042,-22.722455 -0.76167,-1.319232 -14.38503,-9.579753 -26.92507,-16.729821 z"
         id="path7-5" /><path
         id="path8-3"
         style="fill:url(#linearGradient16);fill-opacity:1;stroke-width:0.515755"
         d="m -317.559,-63.169431 c -12.54013,7.150114 -26.16339,15.410575 -26.92507,16.729821 -0.69147,1.197684 -1.03701,14.436677 -1.03653,27.667463 h 0.008 c 0.48665,0.925045 22.65513,11.0957169 29.14824,13.485184 h 39.7514 c 6.85988,-2.5725654 28.91337,-12.704959 28.91353,-13.421723 0,-0.734765 -23.17692,-11.365423 -29.40209,-13.602044 H -317.559 Z m -27.94449,49.378554 c 0.0765,11.3749005 0.41611,21.5868206 1.01942,22.6317872 0.76166,1.3192368 14.38513,9.5798438 26.92507,16.7298288 V -2.3183362 c -6.37591,-2.3192921 -18.95839,-7.5195691 -27.94449,-11.4725408 z" /><path
         style="fill:url(#linearGradient17);fill-opacity:1;stroke-width:0.515755"
         d="m -247.71643,-13.700214 c -8.98589,3.9528728 -21.5685,9.1521768 -27.9445,11.4715268 V 25.570739 c 12.53993,-7.150114 26.1634,-15.410573 26.92507,-16.7298288 0.60172,-1.0421988 0.94167,-11.2025994 1.01943,-22.5411242 z"
         id="path6-5" /></g></g></svg>
