<?xml version="1.0" encoding="UTF-8" standalone="no"?>
<!-- Created with Inkscape (http://www.inkscape.org/) -->

<svg
   width="2064"
   height="1104"
   viewBox="0 0 546.09999 292.1"
   version="1.1"
   id="svg1"
   xml:space="preserve"
   inkscape:version="1.4.3 (0d15f75042, 2025-12-25)"
   sodipodi:docname="hexxla-hero-light.svg"
   inkscape:export-filename="hexxla-hero-light.png"
   inkscape:export-xdpi="96"
   inkscape:export-ydpi="96"
   xmlns:inkscape="http://www.inkscape.org/namespaces/inkscape"
   xmlns:sodipodi="http://sodipodi.sourceforge.net/DTD/sodipodi-0.dtd"
   xmlns:xlink="http://www.w3.org/1999/xlink"
   xmlns="http://www.w3.org/2000/svg"
   xmlns:svg="http://www.w3.org/2000/svg"><sodipodi:namedview
     id="namedview1"
     pagecolor="#ffffff"
     bordercolor="#000000"
     borderopacity="0.25"
     inkscape:showpageshadow="2"
     inkscape:pageopacity="0.0"
     inkscape:pagecheckerboard="0"
     inkscape:deskcolor="#d1d1d1"
     inkscape:document-units="px"
     inkscape:zoom="0.29417646"
     inkscape:cx="829.43414"
     inkscape:cy="-33.993203"
     inkscape:window-width="2048"
     inkscape:window-height="1204"
     inkscape:window-x="0"
     inkscape:window-y="0"
     inkscape:window-maximized="1"
     inkscape:current-layer="layer1" /><defs
     id="defs1"><linearGradient
       id="linearGradient11"
       inkscape:collect="always"><stop
         style="stop-color:#aaeeff;stop-opacity:1"
         offset="0"
         id="stop11" /><stop
         style="stop-color:#00ccff;stop-opacity:1"
         offset="1"
         id="stop12" /></linearGradient><filter
       inkscape:collect="always"
       style="color-interpolation-filters:sRGB"
       id="filter68"
       x="-0.37519634"
       y="-0.26698269"
       width="1.7503927"
       height="1.5339654"><feGaussianBlur
         inkscape:collect="always"
         stdDeviation="2.2411038"
         id="feGaussianBlur68" /></filter><linearGradient
       inkscape:collect="always"
       xlink:href="#linearGradient11"
       id="linearGradient12"
       x1="-345.5206"
       y1="-63.16943"
       x2="-264.80508"
       y2="13.428793"
       gradientUnits="userSpaceOnUse" /><linearGradient
       inkscape:collect="always"
       xlink:href="#linearGradient11"
       id="linearGradient5"
       gradientUnits="userSpaceOnUse"
       x1="-345.5206"
       y1="-63.16943"
       x2="-264.80508"
       y2="13.428793" /><linearGradient
       inkscape:collect="always"
       xlink:href="#linearGradient11"
       id="linearGradient6"
       gradientUnits="userSpaceOnUse"
       x1="-345.5206"
       y1="-63.16943"
       x2="-264.80508"
       y2="13.428793" /><linearGradient
       inkscape:collect="always"
       xlink:href="#linearGradient11"
       id="linearGradient7"
       gradientUnits="userSpaceOnUse"
       x1="-345.5206"
       y1="-63.16943"
       x2="-264.80508"
       y2="13.428793" /></defs><g
     inkscape:label="Layer 1"
     inkscape:groupmode="layer"
     id="layer1"><rect
       style="fill:#aaeeff;stroke-width:0.530084"
       id="rect4"
       width="546.09998"
       height="292.10001"
       x="9.7070315e-06"
       y="-4.3889672e-06"
       ry="19.112326" /><path
       id="rect2"
       style="fill:#d5f6ff;stroke-width:0.530084"
       d="M 527.58175 165.41264 C 521.22496 163.70935 405.09984 194.82477 400.44635 199.47826 C 397.3373 202.58732 382.41605 255.45472 373.36222 292.1 L 526.98747 292.1 C 537.5757 292.1 546.1 283.5757 546.1 272.98747 L 546.1 181.21684 C 536.42909 172.12576 529.26098 165.86259 527.58175 165.41264 z " /><path
       id="rect3"
       style="fill:#d5f6ff;stroke-width:0.530084"
       d="M 313.68266 0 C 339.00197 25.83442 370.45795 56.167878 374.22935 57.178422 C 380.58614 58.881717 496.71177 27.76629 501.36526 23.112801 C 502.59991 21.878148 505.69727 12.796417 509.55029 0 L 313.68266 0 z " /><path
       id="rect1"
       style="fill:#d5f6ff;stroke-width:0.530084"
       d="M 19.112528 0 C 8.5242999 5.0132737e-15 0 8.5242999 0 19.112528 L 0 181.98166 C 33.013038 174.78492 108.41781 154.03904 112.14923 150.30762 C 116.80272 145.65413 147.91814 29.528497 146.21485 23.171712 C 145.69533 21.232867 137.42633 11.977212 126.00264 0 L 19.112528 0 z " /><g
       id="g12"
       inkscape:export-filename="hexxladb_logo.png"
       inkscape:export-xdpi="96"
       inkscape:export-ydpi="96"
       transform="matrix(1.059428,0,0,1.059428,591.84906,160.21277)"><path
         style="mix-blend-mode:normal;fill:#000000;fill-opacity:1;stroke-width:0.264583;filter:url(#filter68)"
         d="m 75.561466,100.20112 c -4.609768,2.02783 -11.06467,4.69508 -14.335559,5.88491 v 14.26115 c 6.432998,-3.66802 13.421856,-7.90565 13.812594,-8.58243 0.308685,-0.53465 0.48308,-5.74695 0.522965,-11.56363 z"
         transform="matrix(1.9493122,0,0,1.9493122,-399.31555,-203.59245)"
         id="path2-2" /><path
         style="mix-blend-mode:normal;fill:#000000;fill-opacity:1;stroke-width:0.264583;filter:url(#filter68)"
         d="m 61.225907,74.82334 v 14.353646 c 3.271036,1.189883 9.726266,3.85757 14.336076,5.885429 C 75.523323,89.208456 75.348828,83.943264 75.038501,83.405762 74.647768,82.728994 67.65896,78.491335 61.225907,74.82334 Z"
         transform="matrix(1.9493122,0,0,1.9493122,-399.31555,-203.59245)"
         id="path3-9" /><path
         id="path4"
         style="mix-blend-mode:normal;fill:#000000;fill-opacity:1;stroke-width:0.264583;filter:url(#filter68)"
         d="m 39.732129,74.82334 c -6.433104,3.668019 -13.421858,7.905647 -13.812594,8.582422 -0.354732,0.614414 -0.531994,7.406037 -0.53175,14.193449 h 0.0041 c 0.249655,0.474549 11.62212,5.692119 14.953092,6.917919 h 20.392554 c 3.519131,-1.31973 14.832603,-6.517662 14.832686,-6.885363 0,-0.376936 -11.889793,-5.830479 -15.083317,-6.977869 H 39.732129 Z M 25.39657,100.15461 c 0.03927,5.83534 0.213459,11.07407 0.522965,11.61014 0.390728,0.67677 7.379591,4.91447 13.812594,8.58243 v -14.30714 c -3.270848,-1.1898 -9.725684,-3.85755 -14.335559,-5.88543 z"
         transform="matrix(1.9493122,0,0,1.9493122,-399.31555,-203.59245)" /><g
         id="g11"
         style="fill:url(#linearGradient12);fill-opacity:1"><path
           style="fill:url(#linearGradient5);fill-opacity:1;stroke-width:0.515755"
           d="m -275.66093,-63.169431 v 27.979738 c 6.37629,2.319453 18.95954,7.519607 27.94549,11.472538 -0.0754,-11.411194 -0.4155,-21.674696 -1.02042,-22.722455 -0.76167,-1.319232 -14.38503,-9.579753 -26.92507,-16.729821 z"
           id="path7" /><path
           id="path8"
           style="fill:url(#linearGradient6);fill-opacity:1;stroke-width:0.515755"
           d="m -317.559,-63.169431 c -12.54013,7.150114 -26.16339,15.410575 -26.92507,16.729821 -0.69147,1.197684 -1.03701,14.436677 -1.03653,27.667463 h 0.008 c 0.48665,0.925045 22.65513,11.0957169 29.14824,13.485184 h 39.7514 c 6.85988,-2.5725654 28.91337,-12.704959 28.91353,-13.421723 0,-0.734765 -23.17692,-11.365423 -29.40209,-13.602044 H -317.559 Z m -27.94449,49.378554 c 0.0765,11.3749005 0.41611,21.5868206 1.01942,22.6317872 0.76166,1.3192368 14.38513,9.5798438 26.92507,16.7298288 V -2.3183362 c -6.37591,-2.3192921 -18.95839,-7.5195691 -27.94449,-11.4725408 z" /><path
           style="fill:url(#linearGradient7);fill-opacity:1;stroke-width:0.515755"
           d="m -247.71643,-13.700214 c -8.98589,3.9528728 -21.5685,9.1521768 -27.9445,11.4715268 V 25.570739 c 12.53993,-7.150114 26.1634,-15.410573 26.92507,-16.7298288 0.60172,-1.0421988 0.94167,-11.2025994 1.01943,-22.5411242 z"
           id="path6" /></g></g></g></svg>
